<svg width="158" height="204" viewBox="0 0 158 204" fill="none" xmlns="http://www.w3.org/2000/svg">
<path d="M79 0C122.63 0 158 35.3695 158 79V171.271C158 188.242 144.242 202 127.271 202C123.267 202 119.788 199.25 118.862 195.354L113.302 171.947C110.212 171.236 107.663 171.472 104.795 172.438L95.377 193.09C88.9731 207.131 69.0268 207.131 62.623 193.09L53.2285 172.49C49.9781 171.421 47.403 171.289 44.71 171.896L39.1377 195.354C38.2124 199.25 34.733 202 30.7295 202C13.7583 202 0 188.242 0 171.271V79C0 35.3695 35.3695 0 79 0Z" fill="#FF0000"/>
<path d="M38 62H60V102H38V62Z" fill="white"/>
<path d="M96 62H118V82V102H96V62Z" fill="white"/>
</svg>
